<svg width="25" height="25" viewBox="0 0 51 51" fill="none" 
    xmlns="http://www.w3.org/2000/svg">
    <path d="M25.4322 50.1356C39.0381 50.1356 50.0678 38.9124 50.0678 25.0678C50.0678 11.2232 39.0381 0 25.4322 0C11.8264 0 0.796631 11.2232 0.796631 25.0678C0.796631 38.9124 11.8264 50.1356 25.4322 50.1356Z" fill="#FFD93B"/>
    <path d="M17.8458 20.2695C20.0107 20.2695 21.7656 18.5145 21.7656 16.3497C21.7656 14.1849 20.0107 12.4299 17.8458 12.4299C15.681 12.4299 13.9261 14.1849 13.9261 16.3497C13.9261 18.5145 15.681 20.2695 17.8458 20.2695Z" fill="#333333"/>
    <path d="M32.6665 20.2695C34.8314 20.2695 36.5863 18.5145 36.5863 16.3497C36.5863 14.1849 34.8314 12.4299 32.6665 12.4299C30.5017 12.4299 28.7468 14.1849 28.7468 16.3497C28.7468 18.5145 30.5017 20.2695 32.6665 20.2695Z" fill="#333333"/>
    <path d="M11.5618 34.397C20.6604 34.397 29.7594 34.397 38.8579 34.397C40.1289 34.397 40.1289 32.4265 38.8579 32.4265C29.7594 32.4265 20.6604 32.4265 11.5618 32.4265C10.2908 32.4265 10.2908 34.397 11.5618 34.397Z" fill="#333333"/>
</svg>
