<svg width="25" height="25" viewBox="0 0 52 51" fill="none" 
    xmlns="http://www.w3.org/2000/svg">
    <path d="M26.3983 50.1356C40.4816 50.1356 51.8983 38.9124 51.8983 25.0678C51.8983 11.2232 40.4816 0 26.3983 0C12.315 0 0.8983 11.2232 0.8983 25.0678C0.8983 38.9124 12.315 50.1356 26.3983 50.1356Z" fill="#FFD93B"/>
    <path d="M18.9279 20.426C21.1094 20.426 22.8779 18.6575 22.8779 16.4759C22.8779 14.2944 21.1094 12.5259 18.9279 12.5259C16.7463 12.5259 14.9778 14.2944 14.9778 16.4759C14.9778 18.6575 16.7463 20.426 18.9279 20.426Z" fill="#333333"/>
    <path d="M33.8642 20.426C36.0457 20.426 37.8142 18.6575 37.8142 16.4759C37.8142 14.2944 36.0457 12.5259 33.8642 12.5259C31.6826 12.5259 29.9142 14.2944 29.9142 16.4759C29.9142 18.6575 31.6826 20.426 33.8642 20.426Z" fill="#333333"/>
    <path d="M37.8545 33.6311C31.5625 40.0343 21.4388 39.9839 15.1993 33.5358C14.3077 32.614 12.905 34.0199 13.7954 34.9397C20.776 42.1539 32.2257 42.1932 39.2585 35.035C40.1563 34.1212 38.7528 32.7165 37.8545 33.6311Z" fill="#333333"/>
</svg>
