<svg width="25" height="25" viewBox="0 0 51 51" fill="none" 
    xmlns="http://www.w3.org/2000/svg">
    <path d="M25.8983 51C39.7429 51 50.9661 39.7767 50.9661 25.9322C50.9661 12.0876 39.7429 0.86438 25.8983 0.86438C12.0537 0.86438 0.830505 12.0876 0.830505 25.9322C0.830505 39.7767 12.0537 51 25.8983 51Z" fill="#FFD93B"/>
    <path d="M38.2123 38.1136C31.2372 30.9918 19.8592 31.0214 12.9245 38.1876C12.041 39.1004 13.4329 40.4955 14.3177 39.5807C20.5181 33.1739 30.5782 33.1345 36.8191 39.5067C37.7094 40.416 39.1018 39.0216 38.2123 38.1136Z" fill="#333333"/>
    <path d="M18.0188 21.0879C20.1836 21.0879 21.9385 19.333 21.9385 17.1681C21.9385 15.0033 20.1836 13.2484 18.0188 13.2484C15.854 13.2484 14.099 15.0033 14.099 17.1681C14.099 19.333 15.854 21.0879 18.0188 21.0879Z" fill="#333333"/>
    <path d="M32.8403 21.0879C35.0051 21.0879 36.76 19.333 36.76 17.1681C36.76 15.0033 35.0051 13.2484 32.8403 13.2484C30.6755 13.2484 28.9206 15.0033 28.9206 17.1681C28.9206 19.333 30.6755 21.0879 32.8403 21.0879Z" fill="#333333"/>
</svg>
