<svg width="25" height="25" viewBox="0 0 51 51" fill="none" 
    xmlns="http://www.w3.org/2000/svg">
    <path d="M25.7966 51C39.6412 51 50.8644 39.7767 50.8644 25.9322C50.8644 12.0876 39.6412 0.86438 25.7966 0.86438C11.9521 0.86438 0.728821 12.0876 0.728821 25.9322C0.728821 39.7767 11.9521 51 25.7966 51Z" fill="#FFD93B"/>
    <path d="M25.7974 41.4916C18.4691 41.4916 12.0836 36.6787 10.27 29.7898C10.1274 29.2477 10.4642 28.6964 11.0233 28.5582C11.5793 28.4169 12.1494 28.7465 12.2919 29.2887C13.8707 35.2815 19.4229 39.4671 25.7958 39.4671C32.1687 39.4671 37.7225 35.2815 39.2997 29.2887C39.4406 28.7465 40.0092 28.4169 40.5699 28.5582C41.129 28.6964 41.4658 29.2477 41.3232 29.7898C39.5111 36.6787 33.1257 41.4916 25.7974 41.4916Z" fill="#3E4347"/>
    <path d="M18.4492 22.4745C20.5975 22.4745 22.339 20.733 22.339 18.5847C22.339 16.4364 20.5975 14.6949 18.4492 14.6949C16.3009 14.6949 14.5593 16.4364 14.5593 18.5847C14.5593 20.733 16.3009 22.4745 18.4492 22.4745Z" fill="#333333"/>
    <path d="M33.1441 22.4745C35.2924 22.4745 37.0339 20.733 37.0339 18.5847C37.0339 16.4364 35.2924 14.6949 33.1441 14.6949C30.9958 14.6949 29.2542 16.4364 29.2542 18.5847C29.2542 20.733 30.9958 22.4745 33.1441 22.4745Z" fill="#333333"/>
</svg>
