<svg width="25" height="25" viewBox="0 0 51 51" fill="none" 
    xmlns="http://www.w3.org/2000/svg">
    <path d="M25.5 50.1356C39.5833 50.1356 51 38.9124 51 25.0678C51 11.2232 39.5833 0 25.5 0C11.4167 0 0 11.2232 0 25.0678C0 38.9124 11.4167 50.1356 25.5 50.1356Z" fill="#FFD93B"/>
    <path d="M38.1811 37.2951C31.0912 30.1733 19.5275 30.2029 12.4788 37.3692C11.5807 38.2819 12.9955 39.6766 13.8947 38.7623C20.1968 32.355 30.4211 32.316 36.7651 38.6882C37.67 39.5975 39.0852 38.2031 38.1811 37.2951Z" fill="#333333"/>
    <path d="M17.6563 20.2694C19.8566 20.2694 21.6402 18.5145 21.6402 16.3497C21.6402 14.1849 19.8566 12.4299 17.6563 12.4299C15.456 12.4299 13.6723 14.1849 13.6723 16.3497C13.6723 18.5145 15.456 20.2694 17.6563 20.2694Z" fill="#333333"/>
    <path d="M32.7209 20.2694C34.9212 20.2694 36.7049 18.5145 36.7049 16.3497C36.7049 14.1849 34.9212 12.4299 32.7209 12.4299C30.5206 12.4299 28.7369 14.1849 28.7369 16.3497C28.7369 18.5145 30.5206 20.2694 32.7209 20.2694Z" fill="#333333"/>
    <path d="M36.7367 19.8813C36.7367 19.8813 33.7119 23.5284 33.7119 27.2907C33.7119 28.9276 35.065 30.2538 36.7362 30.2542C38.4091 30.2535 39.7627 28.9273 39.7627 27.2904C39.7627 25.4686 36.7367 19.8813 36.7367 19.8813Z" fill="#A2D4DE"/>
</svg>
